<svg xmlns="http://www.w3.org/2000/svg" viewBox="0 0 32 32"><g id="SHOPPING_CART" data-name="SHOPPING CART"><path d="M31.05,8.92a1.82,1.82,0,0,0-1.82-1.81H8.89L8.55,5.89A3.72,3.72,0,0,0,5,3.19H2A1.34,1.34,0,0,0,2,5.86H5a1.05,1.05,0,0,1,1,.76L10.2,21.53a3.71,3.71,0,0,0,3.56,2.7H27a1.33,1.33,0,0,0,0-2.66H13.76a1.06,1.06,0,0,1-1-.76l-.31-1.12H26.62a1.8,1.8,0,0,0,1.73-1.31L31,9.44l.07-.32ZM26,17H11.69l-2-7.26H28.1Z"/><circle cx="14.06" cy="27.45" r="1.9"/><path d="M24.34,25.55a1.9,1.9,0,1,0,1.9,1.9A1.9,1.9,0,0,0,24.34,25.55Z"/></g></svg>